<?xml version="1.0" encoding="utf-8"?>
<!-- Generator: Adobe Illustrator 16.0.0, SVG Export Plug-In . SVG Version: 6.00 Build 0)  -->
<!DOCTYPE svg PUBLIC "-//W3C//DTD SVG 1.1//EN" "http://www.w3.org/Graphics/SVG/1.1/DTD/svg11.dtd">
<svg version="1.1" id="Layer_1" xmlns="http://www.w3.org/2000/svg" xmlns:xlink="http://www.w3.org/1999/xlink" x="0px" y="0px"
	 width="110px" height="110px" viewBox="2.25 2.25 110 110" enable-background="new 2.25 2.25 110 110" xml:space="preserve">
<g>
	<circle fill="#FFC827" cx="57.25" cy="57.25" r="55"/>
</g>
<rect x="42.52" y="35.851" fill="#FFFFFF" width="12.797" height="12.543"/>
<g>
	<g>
		<path fill="#F93E2B" d="M87.914,44.453h-8.25c-0.99-3.834-2.936-7.282-5.58-10.076l4.396-6.108
			c0.621-0.862,0.426-2.064-0.438-2.684c-0.862-0.621-2.063-0.424-2.685,0.438l-4.159,5.781c-3.378-2.549-7.466-4.195-11.919-4.567
			v-7.783c0-1.062-0.86-1.923-1.924-1.923c-1.063,0-1.923,0.861-1.923,1.923v7.782c-4.512,0.375-8.65,2.058-12.059,4.666
			l-4.23-5.879c-0.621-0.862-1.822-1.061-2.684-0.438c-0.861,0.62-1.059,1.821-0.439,2.684l4.484,6.231
			c-2.59,2.772-4.498,6.175-5.477,9.954h-8.443c-1.063,0-1.922,0.86-1.922,1.923s0.859,1.923,1.922,1.923h7.781
			c-0.053,0.634-0.098,1.271-0.098,1.916V69.62c0.627-0.104,1.266-0.175,1.922-0.175h42.31c0.655,0,1.297,0.068,1.924,0.175V50.215
			c0-0.646-0.045-1.283-0.099-1.916h7.589c1.063,0,1.924-0.861,1.924-1.923S88.977,44.453,87.914,44.453z M53.508,40.607
			c-3.182,0-5.77,2.588-5.77,5.769c0,1.063-0.861,1.923-1.924,1.923s-1.924-0.861-1.924-1.923c0-5.301,4.314-9.615,9.615-9.615
			c1.064,0,1.924,0.861,1.924,1.923S54.571,40.607,53.508,40.607z"/>
	</g>
	<g>
		<path d="M78.5,73.292H36.191c-4.23,0-7.691,3.462-7.691,7.692c0,4.25,3.461,7.688,7.691,7.688H78.5
			c4.25,0,7.691-3.438,7.691-7.688C86.189,76.754,82.75,73.292,78.5,73.292z"/>
	</g>
</g>
</svg>
