<svg width="49" height="64" xmlns="http://www.w3.org/2000/svg" preserveAspectRatio="xMidYMid">

 <g>
  <title>background</title>
  <rect fill="none" id="canvas_background" height="402" width="582" y="-1" x="-1"/>
 </g>
 <g>
  <title>Layer 1</title>
  <path fill-rule="evenodd" fill="#d65353" id="svg_2" d="m49,16.842l0,42.105c0,2.791 -2.27,5.053 -5.069,5.053l-38.862,0c-2.8,0 -5.069,-2.262 -5.069,-5.053l0,-53.894c0,-2.791 2.269,-5.053 5.069,-5.053l27.034,0l16.897,16.842z" class="cls-1"/>
  <path fill="#fb8d8d" fill-rule="evenodd" id="svg_3" d="m49,15.899l0,2.096l-13.813,0c-2.86,0 -4.179,-2.32 -4.179,-5.181l0,-12.814l2.092,0l15.9,15.899z" class="cls-2"/>
  <path fill="#ffffff" fill-rule="evenodd" id="svg_4" d="m37.606,34.047c-0.436,-0.144 -0.856,-0.217 -1.261,-0.217c-0.46,0 -0.776,0.095 -0.949,0.285c-0.172,0.19 -0.258,0.526 -0.258,1.009l0,0.923l1.933,0l0,1.854l-1.933,0l0,7.635l-2.342,0l0,-7.635l-1.207,0l0,-1.854l1.207,0l0,-0.923c0,-1.176 0.292,-2.026 0.876,-2.551c0.584,-0.525 1.462,-0.787 2.636,-0.787c0.551,0 1.135,0.075 1.752,0.226l-0.454,2.035zm-9.81,10.566c-0.436,0.368 -0.896,0.661 -1.38,0.878c-0.484,0.217 -1.034,0.325 -1.651,0.325c-1.198,0 -2.115,-0.431 -2.75,-1.293c-0.636,-0.863 -0.953,-2.081 -0.953,-3.655c0,-1.61 0.349,-2.861 1.048,-3.754c0.699,-0.892 1.68,-1.339 2.945,-1.339c0.448,0 0.907,0.092 1.379,0.276c0.472,0.184 0.863,0.418 1.171,0.701l0,-4.686l2.342,0l0,13.47l-2.151,0l0,-0.923zm-0.191,-5.934c-0.248,-0.223 -0.555,-0.421 -0.921,-0.593c-0.366,-0.171 -0.74,-0.257 -1.121,-0.257c-0.629,0 -1.134,0.27 -1.515,0.809c-0.382,0.54 -0.572,1.271 -0.572,2.194c0,0.911 0.156,1.625 0.467,2.144c0.312,0.519 0.794,0.778 1.448,0.778c0.387,0 0.782,-0.089 1.184,-0.267c0.402,-0.178 0.746,-0.397 1.03,-0.656l0,-4.152zm-10.01,6.522c-0.575,0.41 -1.261,0.615 -2.06,0.615c-1.053,0 -1.951,-0.328 -2.695,-0.986l0,4.279l-2.342,0l0,-13.062l2.16,0l0,0.931c0.436,-0.374 0.894,-0.668 1.375,-0.882c0.481,-0.214 1.033,-0.321 1.656,-0.321c1.204,0 2.121,0.422 2.75,1.267c0.629,0.844 0.944,2.071 0.944,3.681c0,1.02 -0.154,1.918 -0.463,2.696c-0.309,0.778 -0.75,1.372 -1.325,1.782zm-1.107,-6.599c-0.321,-0.516 -0.799,-0.773 -1.434,-0.773c-0.381,0 -0.773,0.089 -1.175,0.266c-0.403,0.178 -0.749,0.397 -1.039,0.656l0,4.152c0.248,0.224 0.555,0.421 0.921,0.593c0.366,0.172 0.742,0.258 1.13,0.258c0.641,0 1.148,-0.273 1.52,-0.819c0.372,-0.546 0.558,-1.271 0.558,-2.175c0,-0.923 -0.161,-1.642 -0.481,-2.158z" class="cls-3"/>
 </g>
</svg>