<?xml version="1.0" encoding="utf-8"?>
<!-- Generator: Adobe Illustrator 16.0.0, SVG Export Plug-In . SVG Version: 6.00 Build 0)  -->
<!DOCTYPE svg PUBLIC "-//W3C//DTD SVG 1.1//EN" "http://www.w3.org/Graphics/SVG/1.1/DTD/svg11.dtd">
<svg version="1.1" id="Layer_1" xmlns="http://www.w3.org/2000/svg" xmlns:xlink="http://www.w3.org/1999/xlink" x="0px" y="0px"
	 width="109.92px" height="109.824px" viewBox="11.471 14.588 109.92 109.824"
	 enable-background="new 11.471 14.588 109.92 109.824" xml:space="preserve">
<path fill="#5FA2D8" d="M66.42,14.595c29.588-0.485,55.237,24.262,54.969,55.367c-0.26,29.877-24.865,54.511-55.125,54.45
	c-29.381-0.057-55.325-24.033-54.785-55.989C11.997,37.592,37.57,14.146,66.42,14.595z"/>
<path fill="#053B71" d="M44.079,72.181c0-8.276-0.002-16.555,0.002-24.836c0-2.811,0.975-3.795,3.741-3.801
	c2.779-0.004,5.557-0.023,8.334,0.012c0.959,0.011,1.724-0.043,1.543-1.32c-0.137-0.977,0.472-1.178,1.25-1.068
	c1.662,0.234,2.483-0.104,2.521-2.137c0.055-2.83,3.258-5.277,6.195-5.167c3.066,0.114,5.938,2.57,5.951,5.445
	c0.008,1.702,0.661,2.027,2.082,1.859c0.982-0.117,1.86-0.052,1.667,1.35c-0.143,1.024,0.558,1.034,1.298,1.029
	c2.947-0.012,5.896-0.014,8.844,0c2.35,0.011,3.454,1.066,3.456,3.398c0.012,16.84,0.013,33.681-0.002,50.521
	c-0.001,2.483-1.177,3.534-3.932,3.538c-8.277,0.018-16.557,0.011-24.834,0.011c-4.651,0-9.3,0.006-13.949-0.006
	c-3.184-0.008-4.167-1-4.168-4.163C44.078,88.624,44.079,80.403,44.079,72.181z"/>
<path fill="#FEFEFE" d="M47.104,72.175c0-8.05,0.035-16.099-0.034-24.15c-0.014-1.308,0.354-1.619,1.604-1.569
	c2.546,0.1,5.1,0.086,7.651,0.004c1.126-0.036,1.571,0.327,1.385,1.424c-0.231,1.34,0.315,1.715,1.659,1.697
	c5.441-0.075,10.884-0.058,16.327-0.01c1.156,0.01,1.908-0.134,1.645-1.528c-0.239-1.28,0.3-1.637,1.568-1.588
	c2.605,0.103,5.216,0.072,7.821,0.01c0.967-0.023,1.235,0.264,1.234,1.232c-0.025,16.327-0.028,32.654,0.005,48.979
	c0,1.032-0.25,1.34-1.317,1.337c-12.756-0.039-25.509-0.05-38.265,0.01c-1.307,0.006-1.298-0.59-1.295-1.524
	C47.113,88.386,47.104,80.281,47.104,72.175z"/>
<path fill="#053B71" d="M67.538,54.08c5.355,0.004,9.612,4.183,9.684,9.517c0.076,5.36-4.234,9.736-9.626,9.776
	c-5.38,0.041-9.792-4.305-9.773-9.63C57.845,58.315,62.105,54.077,67.538,54.08z"/>
<path fill="#85A9D9" d="M67.531,94.569c-4.59,0-9.175,0.016-13.767-0.018c-0.651-0.007-1.696,0.39-1.751-0.741
	c-0.054-1.182,0.999-0.834,1.653-0.835c9.238-0.019,18.471-0.018,27.708-0.018c0.168,0,0.34,0.005,0.513,0.001
	c0.6-0.012,1.208,0.026,1.183,0.838c-0.03,0.816-0.69,0.767-1.256,0.768c-3.684,0.005-7.368,0.003-11.049,0.003
	C69.685,94.569,68.606,94.569,67.531,94.569z"/>
<path fill="#85A9D9" d="M67.177,86.884c4.476,0,8.95-0.016,13.421,0.017c0.584,0.005,1.496-0.385,1.549,0.745
	c0.054,1.151-0.857,0.832-1.454,0.832c-9.061,0.019-18.126,0.018-27.186,0.005c-0.632-0.002-1.547,0.233-1.504-0.831
	c0.042-1.043,0.963-0.754,1.583-0.756C58.115,86.872,62.646,86.884,67.177,86.884z"/>
<path fill="#85A9D9" d="M66.131,89.943c4.193,0,8.381-0.008,12.574,0.018c0.553,0.002,1.354-0.292,1.405,0.726
	c0.057,1.154-0.825,0.858-1.434,0.858c-8.38,0.018-16.764,0.018-25.143,0.001c-0.627,0-1.548,0.253-1.53-0.804
	c0.016-1.05,0.935-0.779,1.556-0.782C57.75,89.936,61.941,89.943,66.131,89.943z"/>
<path fill="#7CA2D6" d="M67.685,84.05c4.588,0,9.169-0.01,13.759,0.018c0.54,0.003,1.411-0.327,1.42,0.68
	c0.017,1.037-0.875,0.688-1.403,0.688c-9.285,0.021-18.568,0.021-27.856,0c-0.53,0-1.412,0.356-1.422-0.662
	c-0.013-1.019,0.861-0.697,1.402-0.701C58.285,84.041,62.985,84.05,67.685,84.05z"/>
<path fill="#7CA2D6" d="M67.015,79.361c-4.478,0-8.956,0.012-13.432-0.017c-0.541-0.003-1.418,0.317-1.398-0.707
	c0.018-1.019,0.899-0.661,1.429-0.661c9.069-0.019,18.136-0.018,27.206-0.002c0.488,0,1.256-0.307,1.305,0.614
	c0.054,1.054-0.791,0.759-1.341,0.763C76.198,79.368,71.606,79.361,67.015,79.361z"/>
<path fill="#7CA2D6" d="M65.993,82.421c-4.142,0-8.278,0.014-12.418-0.017c-0.544-0.001-1.412,0.307-1.391-0.718
	c0.019-1.014,0.883-0.687,1.424-0.69c8.395-0.019,16.785-0.019,25.181-0.003c0.498,0.002,1.247-0.271,1.3,0.639
	c0.054,1.053-0.775,0.769-1.332,0.77C74.501,82.433,70.248,82.421,65.993,82.421z"/>
<path fill="#FDFEFE" d="M67.669,69.23c-1.517,0.383-1.944-0.205-1.875-1.626c0.105-2.225,0.018-2.283-2.178-2.211
	c-1.201,0.039-1.815-0.116-1.771-1.59c0.039-1.353,0.301-1.894,1.769-1.812c2.197,0.124,2.326,0.018,2.166-2.197
	c-0.114-1.594,0.605-1.622,1.848-1.675c1.412-0.06,1.681,0.447,1.626,1.715c-0.092,2.178-0.018,2.263,2.226,2.16
	c1.341-0.061,1.752,0.335,1.71,1.685c-0.037,1.214-0.174,1.979-1.63,1.709c-0.384-0.072-0.797,0.026-1.188-0.019
	c-0.85-0.104-1.293,0.152-1.156,1.094c0.055,0.389-0.028,0.795,0.017,1.186C69.375,68.893,69.125,69.726,67.669,69.23z"/>
</svg>
